<svg width="415" height="42" viewBox="0 0 415 42" fill="none" xmlns="http://www.w3.org/2000/svg">
<path d="M0.810547 1.15039H4.33496C5.92285 1.15039 7.08301 1.39941 7.81543 1.89746C8.55371 2.39551 8.92285 3.18945 8.92285 4.2793C8.92285 4.77148 8.82617 5.21973 8.63281 5.62402C8.44531 6.02832 8.16406 6.36816 7.78906 6.64355C7.41992 6.91309 6.96289 7.09766 6.41797 7.19727V7.25879C7.06836 7.3584 7.60449 7.54004 8.02637 7.80371C8.4541 8.06152 8.77051 8.4043 8.97559 8.83203C9.18652 9.25391 9.29199 9.75781 9.29199 10.3438C9.29199 11.1875 9.09863 11.8789 8.71191 12.418C8.33105 12.957 7.80078 13.3555 7.12109 13.6133C6.44141 13.8711 5.65625 14 4.76562 14H0.810547V1.15039ZM1.71582 6.86328H4.56348C5.77051 6.86328 6.64355 6.65234 7.18262 6.23047C7.72168 5.80859 7.99121 5.18457 7.99121 4.3584C7.99121 3.50293 7.70117 2.8877 7.12109 2.5127C6.54102 2.1377 5.6123 1.9502 4.33496 1.9502H1.71582V6.86328ZM1.71582 7.6543V13.2002H4.73926C5.92871 13.2002 6.8252 12.96 7.42871 12.4795C8.03223 11.9932 8.33398 11.2695 8.33398 10.3086C8.33398 9.67578 8.19336 9.16602 7.91211 8.7793C7.63086 8.38672 7.20898 8.10254 6.64648 7.92676C6.08984 7.74512 5.39551 7.6543 4.56348 7.6543H1.71582ZM19.7949 9.20996C19.7949 9.94824 19.7041 10.6221 19.5225 11.2314C19.3408 11.835 19.0713 12.3564 18.7139 12.7959C18.3564 13.2354 17.9111 13.5752 17.3779 13.8154C16.8506 14.0557 16.2354 14.1758 15.5322 14.1758C14.8643 14.1758 14.2695 14.0586 13.748 13.8242C13.2266 13.584 12.7842 13.2441 12.4209 12.8047C12.0635 12.3652 11.791 11.8438 11.6035 11.2402C11.416 10.6309 11.3223 9.9541 11.3223 9.20996C11.3223 8.18457 11.4922 7.30273 11.832 6.56445C12.1777 5.82031 12.6699 5.25195 13.3086 4.85938C13.9531 4.46094 14.7236 4.26172 15.6201 4.26172C16.5459 4.26172 17.3164 4.47266 17.9316 4.89453C18.5527 5.31055 19.0186 5.89062 19.3291 6.63477C19.6396 7.37891 19.7949 8.2373 19.7949 9.20996ZM12.2363 9.20996C12.2363 10.0479 12.3564 10.7803 12.5967 11.4072C12.8369 12.0342 13.2002 12.5234 13.6865 12.875C14.1787 13.2266 14.7998 13.4023 15.5498 13.4023C16.3174 13.4023 16.9473 13.2266 17.4395 12.875C17.9316 12.5234 18.2949 12.0312 18.5293 11.3984C18.7637 10.7656 18.8809 10.0361 18.8809 9.20996C18.8809 8.40723 18.7695 7.69238 18.5469 7.06543C18.3242 6.43848 17.9727 5.94629 17.4922 5.58887C17.0117 5.22559 16.3848 5.04395 15.6113 5.04395C14.5039 5.04395 13.6631 5.41309 13.0889 6.15137C12.5205 6.88965 12.2363 7.90918 12.2363 9.20996ZM23.3018 4.44629V11.3105C23.3018 11.4453 23.2988 11.583 23.293 11.7236C23.293 11.8643 23.29 12.0078 23.2842 12.1543C23.2842 12.3008 23.2812 12.4443 23.2754 12.585C23.2695 12.7256 23.2607 12.8633 23.249 12.998L28.9531 4.44629H30.043V14H29.1992V7.07422C29.1992 6.89844 29.1992 6.7168 29.1992 6.5293C29.2051 6.33594 29.2109 6.14551 29.2168 5.95801C29.2227 5.76465 29.2285 5.58301 29.2344 5.41309L23.5039 14H22.4404V4.44629H23.3018ZM29.1377 0.623047C29.1025 1.18555 28.9678 1.64844 28.7334 2.01172C28.5049 2.375 28.1797 2.64746 27.7578 2.8291C27.3359 3.00488 26.8262 3.09277 26.2285 3.09277C25.625 3.09277 25.1182 3.00781 24.708 2.83789C24.3037 2.66211 23.9902 2.39258 23.7676 2.0293C23.5508 1.66016 23.4277 1.19141 23.3984 0.623047H24.2422C24.3008 1.26758 24.4854 1.73047 24.7959 2.01172C25.1123 2.28711 25.5928 2.4248 26.2373 2.4248C26.8643 2.4248 27.3477 2.28711 27.6875 2.01172C28.0332 1.73633 28.2324 1.27344 28.2852 0.623047H29.1377ZM39.7812 4.44629V13.2178H41.0645V17.2344H40.1943V14H32.8818V17.2344H32.0205V13.2178H32.6621C33.2012 12.4736 33.6523 11.6445 34.0156 10.7305C34.3789 9.81641 34.6543 8.83203 34.8418 7.77734C35.0352 6.7168 35.1377 5.60645 35.1494 4.44629H39.7812ZM38.9111 5.19336H35.958C35.9111 6.24219 35.7939 7.24707 35.6064 8.20801C35.4189 9.16309 35.1611 10.0625 34.833 10.9062C34.5049 11.7441 34.1064 12.5146 33.6377 13.2178H38.9111V5.19336ZM43.9385 4.44629V11.3105C43.9385 11.4453 43.9355 11.583 43.9297 11.7236C43.9297 11.8643 43.9268 12.0078 43.9209 12.1543C43.9209 12.3008 43.918 12.4443 43.9121 12.585C43.9062 12.7256 43.8975 12.8633 43.8857 12.998L49.5898 4.44629H50.6797V14H49.8359V7.07422C49.8359 6.89844 49.8359 6.7168 49.8359 6.5293C49.8418 6.33594 49.8477 6.14551 49.8535 5.95801C49.8594 5.76465 49.8652 5.58301 49.8711 5.41309L44.1406 14H43.0771V4.44629H43.9385ZM59.9697 5.22852H56.7354V14H55.8652V5.22852H52.6484V4.44629H59.9697V5.22852ZM65.5332 4.26172C66.3477 4.26172 67.0244 4.45215 67.5635 4.83301C68.1084 5.21387 68.5127 5.73535 68.7764 6.39746C69.0459 7.05957 69.1807 7.81836 69.1807 8.67383V9.31543H62.2812C62.2812 10.6279 62.583 11.6357 63.1865 12.3389C63.7959 13.042 64.666 13.3936 65.7969 13.3936C66.3887 13.3936 66.9014 13.3467 67.335 13.2529C67.7744 13.1533 68.2607 12.9863 68.7939 12.752V13.5693C68.3252 13.7803 67.8564 13.9326 67.3877 14.0264C66.9189 14.126 66.3799 14.1758 65.7705 14.1758C64.8037 14.1758 63.9922 13.9766 63.3359 13.5781C62.6855 13.1738 62.1934 12.6055 61.8594 11.873C61.5312 11.1406 61.3672 10.2852 61.3672 9.30664C61.3672 8.35156 61.5254 7.49316 61.8418 6.73145C62.1641 5.96973 62.6328 5.36914 63.248 4.92969C63.8691 4.48438 64.6309 4.26172 65.5332 4.26172ZM65.5244 5.02637C64.6104 5.02637 63.8691 5.33105 63.3008 5.94043C62.7383 6.54395 62.4072 7.41699 62.3076 8.55957H68.2578C68.2578 7.8623 68.1582 7.24707 67.959 6.71387C67.7598 6.18066 67.458 5.76758 67.0537 5.47461C66.6553 5.17578 66.1455 5.02637 65.5244 5.02637ZM72.8457 11.9082L72.9248 12.1191C72.8311 12.5586 72.7139 13.0215 72.5732 13.5078C72.4385 13.9941 72.2891 14.4775 72.125 14.958C71.9668 15.4443 71.7969 15.8984 71.6152 16.3203H70.9297C71.082 15.7871 71.2197 15.2656 71.3428 14.7559C71.4658 14.252 71.5742 13.7627 71.668 13.2881C71.7617 12.8076 71.8379 12.3477 71.8965 11.9082H72.8457ZM81.0986 4.44629V7.6543C81.0986 8.45703 81.2979 9.04297 81.6963 9.41211C82.0947 9.77539 82.6777 9.95703 83.4453 9.95703C84.1016 9.95703 84.6904 9.85449 85.2119 9.64941C85.7393 9.44434 86.2432 9.16895 86.7236 8.82324V4.44629H87.6113V14H86.7236V9.59668C86.2021 9.94824 85.6777 10.2236 85.1504 10.4229C84.6289 10.6221 84.0137 10.7217 83.3047 10.7217C82.291 10.7217 81.5205 10.4639 80.9932 9.94824C80.4717 9.42676 80.2109 8.69727 80.2109 7.75977V4.44629H81.0986ZM96.8838 5.22852H93.6494V14H92.7793V5.22852H89.5625V4.44629H96.8838V5.22852ZM106.754 9.20996C106.754 9.94824 106.663 10.6221 106.481 11.2314C106.3 11.835 106.03 12.3564 105.673 12.7959C105.315 13.2354 104.87 13.5752 104.337 13.8154C103.81 14.0557 103.194 14.1758 102.491 14.1758C101.823 14.1758 101.229 14.0586 100.707 13.8242C100.186 13.584 99.7432 13.2441 99.3799 12.8047C99.0225 12.3652 98.75 11.8438 98.5625 11.2402C98.375 10.6309 98.2812 9.9541 98.2812 9.20996C98.2812 8.18457 98.4512 7.30273 98.791 6.56445C99.1367 5.82031 99.6289 5.25195 100.268 4.85938C100.912 4.46094 101.683 4.26172 102.579 4.26172C103.505 4.26172 104.275 4.47266 104.891 4.89453C105.512 5.31055 105.978 5.89062 106.288 6.63477C106.599 7.37891 106.754 8.2373 106.754 9.20996ZM99.1953 9.20996C99.1953 10.0479 99.3154 10.7803 99.5557 11.4072C99.7959 12.0342 100.159 12.5234 100.646 12.875C101.138 13.2266 101.759 13.4023 102.509 13.4023C103.276 13.4023 103.906 13.2266 104.398 12.875C104.891 12.5234 105.254 12.0312 105.488 11.3984C105.723 10.7656 105.84 10.0361 105.84 9.20996C105.84 8.40723 105.729 7.69238 105.506 7.06543C105.283 6.43848 104.932 5.94629 104.451 5.58887C103.971 5.22559 103.344 5.04395 102.57 5.04395C101.463 5.04395 100.622 5.41309 100.048 6.15137C99.4795 6.88965 99.1953 7.90918 99.1953 9.20996ZM108.872 8.26074C108.872 7.05957 108.966 6.02539 109.153 5.1582C109.347 4.29102 109.631 3.57617 110.006 3.01367C110.387 2.44531 110.858 2.01465 111.421 1.72168C112.048 1.31738 112.801 1.00684 113.68 0.790039C114.564 0.573242 115.59 0.397461 116.756 0.262695L116.896 1.05371C116.287 1.12402 115.722 1.20312 115.2 1.29102C114.685 1.37891 114.213 1.47852 113.785 1.58984C113.357 1.69531 112.974 1.81543 112.634 1.9502C112.3 2.08496 112.01 2.2373 111.764 2.40723C111.377 2.6416 111.046 2.97266 110.771 3.40039C110.495 3.82227 110.275 4.34375 110.111 4.96484C109.947 5.58594 109.845 6.3125 109.804 7.14453H109.874C110.091 6.75195 110.372 6.40332 110.718 6.09863C111.069 5.79395 111.474 5.55371 111.931 5.37793C112.388 5.19629 112.889 5.10547 113.434 5.10547C114.236 5.10547 114.91 5.27539 115.455 5.61523C116.006 5.94922 116.422 6.44141 116.703 7.0918C116.984 7.73633 117.125 8.52148 117.125 9.44727C117.125 10.3965 116.973 11.2285 116.668 11.9434C116.363 12.6523 115.906 13.2031 115.297 13.5957C114.693 13.9824 113.938 14.1758 113.029 14.1758C112.291 14.1758 111.658 14.0264 111.131 13.7275C110.604 13.4229 110.173 13.0039 109.839 12.4707C109.511 11.9316 109.268 11.3047 109.109 10.5898C108.951 9.86914 108.872 9.09277 108.872 8.26074ZM113.1 13.4023C113.803 13.4023 114.383 13.2471 114.84 12.9365C115.297 12.6201 115.637 12.1719 115.859 11.5918C116.082 11.0059 116.193 10.3115 116.193 9.50879C116.193 8.31934 115.95 7.41992 115.464 6.81055C114.978 6.19531 114.266 5.8877 113.328 5.8877C112.783 5.8877 112.288 5.9873 111.843 6.18652C111.397 6.38574 111.002 6.66113 110.656 7.0127C110.316 7.3584 110.023 7.75684 109.777 8.20801C109.777 8.8584 109.827 9.49414 109.927 10.1152C110.026 10.7305 110.199 11.2871 110.445 11.7852C110.691 12.2832 111.028 12.6787 111.456 12.9717C111.89 13.2588 112.438 13.4023 113.1 13.4023ZM119.735 14V4.44629H120.632V8.47168H123.901C124.651 8.47168 125.264 8.57715 125.738 8.78809C126.219 8.99902 126.573 9.30371 126.802 9.70215C127.036 10.1006 127.153 10.5811 127.153 11.1436C127.153 11.7412 127.03 12.2539 126.784 12.6816C126.538 13.1035 126.16 13.4287 125.65 13.6572C125.141 13.8857 124.493 14 123.708 14H119.735ZM120.632 13.2441H123.611C124.52 13.2441 125.188 13.0713 125.615 12.7256C126.043 12.3799 126.257 11.8555 126.257 11.1523C126.257 10.5137 126.049 10.0361 125.633 9.71973C125.223 9.40332 124.602 9.24512 123.77 9.24512H120.632V13.2441ZM128.674 14V4.44629H129.562V14H128.674ZM138.315 4.44629V8.62988H144.336V4.44629H145.224V14H144.336V9.41211H138.315V14H137.419V4.44629H138.315ZM151.754 4.2793C152.803 4.2793 153.588 4.54297 154.109 5.07031C154.631 5.59766 154.892 6.43848 154.892 7.59277V14H154.206L154.048 12.3301H153.995C153.79 12.6875 153.541 13.0068 153.248 13.2881C152.955 13.5635 152.595 13.7803 152.167 13.9385C151.745 14.0967 151.229 14.1758 150.62 14.1758C150.005 14.1758 149.478 14.0732 149.038 13.8682C148.604 13.6631 148.268 13.3643 148.027 12.9717C147.793 12.5791 147.676 12.1016 147.676 11.5391C147.676 10.5898 148.068 9.86914 148.854 9.37695C149.639 8.87891 150.767 8.59766 152.237 8.5332L154.013 8.44531V7.75098C154.013 6.77246 153.819 6.0752 153.433 5.65918C153.046 5.24316 152.475 5.03516 151.719 5.03516C151.227 5.03516 150.752 5.09961 150.295 5.22852C149.844 5.35156 149.384 5.53027 148.915 5.76465L148.634 5.02637C149.091 4.80957 149.58 4.63086 150.102 4.49023C150.629 4.34961 151.18 4.2793 151.754 4.2793ZM154.004 9.13965L152.334 9.20996C151.121 9.26855 150.198 9.48535 149.565 9.86035C148.933 10.2354 148.616 10.7979 148.616 11.5479C148.616 12.1514 148.804 12.6143 149.179 12.9365C149.56 13.2588 150.087 13.4199 150.761 13.4199C151.81 13.4199 152.609 13.1211 153.16 12.5234C153.717 11.9258 153.998 11.1113 154.004 10.0801V9.13965ZM158.706 4.44629V7.6543C158.706 8.45703 158.905 9.04297 159.304 9.41211C159.702 9.77539 160.285 9.95703 161.053 9.95703C161.709 9.95703 162.298 9.85449 162.819 9.64941C163.347 9.44434 163.851 9.16895 164.331 8.82324V4.44629H165.219V14H164.331V9.59668C163.81 9.94824 163.285 10.2236 162.758 10.4229C162.236 10.6221 161.621 10.7217 160.912 10.7217C159.898 10.7217 159.128 10.4639 158.601 9.94824C158.079 9.42676 157.818 8.69727 157.818 7.75977V4.44629H158.706ZM171.74 4.2793C172.789 4.2793 173.574 4.54297 174.096 5.07031C174.617 5.59766 174.878 6.43848 174.878 7.59277V14H174.192L174.034 12.3301H173.981C173.776 12.6875 173.527 13.0068 173.234 13.2881C172.941 13.5635 172.581 13.7803 172.153 13.9385C171.731 14.0967 171.216 14.1758 170.606 14.1758C169.991 14.1758 169.464 14.0732 169.024 13.8682C168.591 13.6631 168.254 13.3643 168.014 12.9717C167.779 12.5791 167.662 12.1016 167.662 11.5391C167.662 10.5898 168.055 9.86914 168.84 9.37695C169.625 8.87891 170.753 8.59766 172.224 8.5332L173.999 8.44531V7.75098C173.999 6.77246 173.806 6.0752 173.419 5.65918C173.032 5.24316 172.461 5.03516 171.705 5.03516C171.213 5.03516 170.738 5.09961 170.281 5.22852C169.83 5.35156 169.37 5.53027 168.901 5.76465L168.62 5.02637C169.077 4.80957 169.566 4.63086 170.088 4.49023C170.615 4.34961 171.166 4.2793 171.74 4.2793ZM173.99 9.13965L172.32 9.20996C171.107 9.26855 170.185 9.48535 169.552 9.86035C168.919 10.2354 168.603 10.7979 168.603 11.5479C168.603 12.1514 168.79 12.6143 169.165 12.9365C169.546 13.2588 170.073 13.4199 170.747 13.4199C171.796 13.4199 172.596 13.1211 173.146 12.5234C173.703 11.9258 173.984 11.1113 173.99 10.0801V9.13965ZM184.036 5.22852H180.802V14H179.932V5.22852H176.715V4.44629H184.036V5.22852ZM186.884 8.47168H190.285C191.035 8.47168 191.65 8.57715 192.131 8.78809C192.617 8.99902 192.978 9.30371 193.212 9.70215C193.452 10.1006 193.572 10.5811 193.572 11.1436C193.572 11.7412 193.446 12.2539 193.194 12.6816C192.948 13.1035 192.567 13.4287 192.052 13.6572C191.536 13.8857 190.886 14 190.101 14H185.987V4.44629H186.884V8.47168ZM192.676 11.1523C192.676 10.5137 192.465 10.0361 192.043 9.71973C191.621 9.40332 190.997 9.24512 190.171 9.24512H186.884V13.2441H190.03C190.927 13.2441 191.592 13.0713 192.025 12.7256C192.459 12.374 192.676 11.8496 192.676 11.1523ZM201.772 4.44629V11.3105C201.772 11.4453 201.77 11.583 201.764 11.7236C201.764 11.8643 201.761 12.0078 201.755 12.1543C201.755 12.3008 201.752 12.4443 201.746 12.585C201.74 12.7256 201.731 12.8633 201.72 12.998L207.424 4.44629H208.514V14H207.67V7.07422C207.67 6.89844 207.67 6.7168 207.67 6.5293C207.676 6.33594 207.682 6.14551 207.688 5.95801C207.693 5.76465 207.699 5.58301 207.705 5.41309L201.975 14H200.911V4.44629H201.772ZM215.545 14.1758C214.596 14.1758 213.793 13.9795 213.137 13.5869C212.486 13.1885 211.994 12.623 211.66 11.8906C211.332 11.1523 211.168 10.2793 211.168 9.27148C211.168 8.22266 211.358 7.32617 211.739 6.58203C212.12 5.83203 212.656 5.25781 213.348 4.85938C214.039 4.46094 214.851 4.26172 215.782 4.26172C216.239 4.26172 216.664 4.30273 217.057 4.38477C217.449 4.4668 217.804 4.58105 218.12 4.72754L217.883 5.50977C217.555 5.36328 217.206 5.25195 216.837 5.17578C216.468 5.09961 216.113 5.06152 215.773 5.06152C214.988 5.06152 214.32 5.23438 213.77 5.58008C213.225 5.91992 212.806 6.40625 212.513 7.03906C212.226 7.66602 212.082 8.40723 212.082 9.2627C212.082 10.0654 212.205 10.7773 212.451 11.3984C212.697 12.0137 213.075 12.5 213.585 12.8574C214.095 13.209 214.748 13.3848 215.545 13.3848C216.008 13.3848 216.447 13.3379 216.863 13.2441C217.285 13.1504 217.669 13.0303 218.015 12.8838V13.6924C217.704 13.833 217.344 13.9473 216.934 14.0352C216.529 14.1289 216.066 14.1758 215.545 14.1758ZM227.902 4.44629V14H227.015V5.22852H221.179V14H220.282V4.44629H227.902ZM239.029 9.20996C239.029 9.94824 238.938 10.6221 238.757 11.2314C238.575 11.835 238.306 12.3564 237.948 12.7959C237.591 13.2354 237.146 13.5752 236.612 13.8154C236.085 14.0557 235.47 14.1758 234.767 14.1758C234.099 14.1758 233.504 14.0586 232.982 13.8242C232.461 13.584 232.019 13.2441 231.655 12.8047C231.298 12.3652 231.025 11.8438 230.838 11.2402C230.65 10.6309 230.557 9.9541 230.557 9.20996C230.557 8.18457 230.727 7.30273 231.066 6.56445C231.412 5.82031 231.904 5.25195 232.543 4.85938C233.188 4.46094 233.958 4.26172 234.854 4.26172C235.78 4.26172 236.551 4.47266 237.166 4.89453C237.787 5.31055 238.253 5.89062 238.563 6.63477C238.874 7.37891 239.029 8.2373 239.029 9.20996ZM231.471 9.20996C231.471 10.0479 231.591 10.7803 231.831 11.4072C232.071 12.0342 232.435 12.5234 232.921 12.875C233.413 13.2266 234.034 13.4023 234.784 13.4023C235.552 13.4023 236.182 13.2266 236.674 12.875C237.166 12.5234 237.529 12.0312 237.764 11.3984C237.998 10.7656 238.115 10.0361 238.115 9.20996C238.115 8.40723 238.004 7.69238 237.781 7.06543C237.559 6.43848 237.207 5.94629 236.727 5.58887C236.246 5.22559 235.619 5.04395 234.846 5.04395C233.738 5.04395 232.897 5.41309 232.323 6.15137C231.755 6.88965 231.471 7.90918 231.471 9.20996ZM248.293 14H247.405V5.21973H244.065C243.954 6.72559 243.822 8.03809 243.67 9.15723C243.518 10.2705 243.321 11.1934 243.081 11.9258C242.841 12.6523 242.542 13.1943 242.185 13.5518C241.827 13.9092 241.385 14.0879 240.857 14.0879C240.705 14.0879 240.57 14.0791 240.453 14.0615C240.336 14.0498 240.242 14.0322 240.172 14.0088V13.2881C240.242 13.3057 240.321 13.3203 240.409 13.332C240.497 13.3379 240.605 13.3408 240.734 13.3408C241.033 13.3408 241.3 13.2295 241.534 13.0068C241.769 12.7783 241.977 12.4326 242.158 11.9697C242.346 11.5068 242.507 10.9238 242.642 10.2207C242.776 9.51172 242.894 8.67676 242.993 7.71582C243.099 6.75488 243.192 5.66504 243.274 4.44629H248.293V14ZM252.38 8.47168H255.781C256.531 8.47168 257.146 8.57715 257.627 8.78809C258.113 8.99902 258.474 9.30371 258.708 9.70215C258.948 10.1006 259.068 10.5811 259.068 11.1436C259.068 11.7412 258.942 12.2539 258.69 12.6816C258.444 13.1035 258.063 13.4287 257.548 13.6572C257.032 13.8857 256.382 14 255.597 14H251.483V4.44629H252.38V8.47168ZM258.172 11.1523C258.172 10.5137 257.961 10.0361 257.539 9.71973C257.117 9.40332 256.493 9.24512 255.667 9.24512H252.38V13.2441H255.526C256.423 13.2441 257.088 13.0713 257.521 12.7256C257.955 12.374 258.172 11.8496 258.172 11.1523ZM263.92 4.26172C264.576 4.26172 265.136 4.3584 265.599 4.55176C266.062 4.74512 266.413 5.02637 266.653 5.39551C266.899 5.75879 267.022 6.20117 267.022 6.72266C267.022 7.27344 266.876 7.73047 266.583 8.09375C266.29 8.45117 265.877 8.70605 265.344 8.8584V8.91113C265.789 9.01074 266.161 9.16895 266.46 9.38574C266.765 9.60254 266.993 9.875 267.146 10.2031C267.298 10.5254 267.374 10.8975 267.374 11.3193C267.374 11.9053 267.225 12.4121 266.926 12.8398C266.633 13.2676 266.214 13.5986 265.669 13.833C265.124 14.0615 264.471 14.1758 263.709 14.1758C263.287 14.1758 262.889 14.1494 262.514 14.0967C262.139 14.0439 261.799 13.9707 261.494 13.877C261.195 13.7773 260.935 13.6689 260.712 13.5518V12.6816C261.14 12.9102 261.603 13.0889 262.101 13.2178C262.604 13.3467 263.141 13.4111 263.709 13.4111C264.248 13.4111 264.726 13.332 265.142 13.1738C265.558 13.0156 265.886 12.7783 266.126 12.4619C266.366 12.1455 266.486 11.7471 266.486 11.2666C266.486 10.8096 266.378 10.4404 266.161 10.1592C265.944 9.87207 265.625 9.66406 265.203 9.53516C264.781 9.40039 264.26 9.33301 263.639 9.33301H262.355V8.56836H263.542C264.339 8.56836 264.975 8.4248 265.449 8.1377C265.924 7.84473 266.161 7.39062 266.161 6.77539C266.161 6.20703 265.965 5.77637 265.572 5.4834C265.186 5.18457 264.623 5.03516 263.885 5.03516C263.363 5.03516 262.897 5.09668 262.487 5.21973C262.077 5.33691 261.655 5.49512 261.222 5.69434L260.896 4.94727C261.342 4.74219 261.808 4.57812 262.294 4.45508C262.786 4.32617 263.328 4.26172 263.92 4.26172ZM277.789 9.20996C277.789 9.94824 277.698 10.6221 277.517 11.2314C277.335 11.835 277.065 12.3564 276.708 12.7959C276.351 13.2354 275.905 13.5752 275.372 13.8154C274.845 14.0557 274.229 14.1758 273.526 14.1758C272.858 14.1758 272.264 14.0586 271.742 13.8242C271.221 13.584 270.778 13.2441 270.415 12.8047C270.058 12.3652 269.785 11.8438 269.598 11.2402C269.41 10.6309 269.316 9.9541 269.316 9.20996C269.316 8.18457 269.486 7.30273 269.826 6.56445C270.172 5.82031 270.664 5.25195 271.303 4.85938C271.947 4.46094 272.718 4.26172 273.614 4.26172C274.54 4.26172 275.311 4.47266 275.926 4.89453C276.547 5.31055 277.013 5.89062 277.323 6.63477C277.634 7.37891 277.789 8.2373 277.789 9.20996ZM270.23 9.20996C270.23 10.0479 270.351 10.7803 270.591 11.4072C270.831 12.0342 271.194 12.5234 271.681 12.875C272.173 13.2266 272.794 13.4023 273.544 13.4023C274.312 13.4023 274.941 13.2266 275.434 12.875C275.926 12.5234 276.289 12.0312 276.523 11.3984C276.758 10.7656 276.875 10.0361 276.875 9.20996C276.875 8.40723 276.764 7.69238 276.541 7.06543C276.318 6.43848 275.967 5.94629 275.486 5.58887C275.006 5.22559 274.379 5.04395 273.605 5.04395C272.498 5.04395 271.657 5.41309 271.083 6.15137C270.515 6.88965 270.23 7.90918 270.23 9.20996ZM287.589 6.77539C287.589 7.37891 287.431 7.85352 287.114 8.19922C286.804 8.54492 286.391 8.7793 285.875 8.90234V8.95508C286.502 9.04883 287.006 9.28613 287.387 9.66699C287.773 10.042 287.967 10.5811 287.967 11.2842C287.967 11.8408 287.844 12.3213 287.598 12.7256C287.352 13.1299 286.974 13.4434 286.464 13.666C285.96 13.8887 285.312 14 284.521 14H280.435V4.44629H284.416C285.119 4.44629 285.705 4.53711 286.174 4.71875C286.643 4.89453 286.994 5.15527 287.229 5.50098C287.469 5.84082 287.589 6.26562 287.589 6.77539ZM287.044 11.2842C287.044 10.5986 286.812 10.1064 286.35 9.80762C285.887 9.50879 285.207 9.35938 284.311 9.35938H281.331V13.2441H284.363C285.26 13.2441 285.931 13.0859 286.376 12.7695C286.821 12.4473 287.044 11.9521 287.044 11.2842ZM286.684 6.8457C286.684 6.3418 286.505 5.94629 286.147 5.65918C285.79 5.36621 285.184 5.21973 284.328 5.21973H281.331V8.57715H284.24C285.084 8.57715 285.702 8.43359 286.095 8.14648C286.487 7.85352 286.684 7.41992 286.684 6.8457ZM293.961 4.2793C295.01 4.2793 295.795 4.54297 296.316 5.07031C296.838 5.59766 297.099 6.43848 297.099 7.59277V14H296.413L296.255 12.3301H296.202C295.997 12.6875 295.748 13.0068 295.455 13.2881C295.162 13.5635 294.802 13.7803 294.374 13.9385C293.952 14.0967 293.437 14.1758 292.827 14.1758C292.212 14.1758 291.685 14.0732 291.245 13.8682C290.812 13.6631 290.475 13.3643 290.234 12.9717C290 12.5791 289.883 12.1016 289.883 11.5391C289.883 10.5898 290.275 9.86914 291.061 9.37695C291.846 8.87891 292.974 8.59766 294.444 8.5332L296.22 8.44531V7.75098C296.22 6.77246 296.026 6.0752 295.64 5.65918C295.253 5.24316 294.682 5.03516 293.926 5.03516C293.434 5.03516 292.959 5.09961 292.502 5.22852C292.051 5.35156 291.591 5.53027 291.122 5.76465L290.841 5.02637C291.298 4.80957 291.787 4.63086 292.309 4.49023C292.836 4.34961 293.387 4.2793 293.961 4.2793ZM296.211 9.13965L294.541 9.20996C293.328 9.26855 292.405 9.48535 291.772 9.86035C291.14 10.2354 290.823 10.7979 290.823 11.5479C290.823 12.1514 291.011 12.6143 291.386 12.9365C291.767 13.2588 292.294 13.4199 292.968 13.4199C294.017 13.4199 294.816 13.1211 295.367 12.5234C295.924 11.9258 296.205 11.1113 296.211 10.0801V9.13965ZM306.257 5.22852H303.022V14H302.152V5.22852H298.936V4.44629H306.257V5.22852ZM309.104 8.47168H312.506C313.256 8.47168 313.871 8.57715 314.352 8.78809C314.838 8.99902 315.198 9.30371 315.433 9.70215C315.673 10.1006 315.793 10.5811 315.793 11.1436C315.793 11.7412 315.667 12.2539 315.415 12.6816C315.169 13.1035 314.788 13.4287 314.272 13.6572C313.757 13.8857 313.106 14 312.321 14H308.208V4.44629H309.104V8.47168ZM314.896 11.1523C314.896 10.5137 314.686 10.0361 314.264 9.71973C313.842 9.40332 313.218 9.24512 312.392 9.24512H309.104V13.2441H312.251C313.147 13.2441 313.812 13.0713 314.246 12.7256C314.68 12.374 314.896 11.8496 314.896 11.1523ZM330.752 4.44629V14H329.864V5.22852H324.028V14H323.132V4.44629H330.752ZM340.578 14H339.69V5.21973H336.351C336.239 6.72559 336.107 8.03809 335.955 9.15723C335.803 10.2705 335.606 11.1934 335.366 11.9258C335.126 12.6523 334.827 13.1943 334.47 13.5518C334.112 13.9092 333.67 14.0879 333.143 14.0879C332.99 14.0879 332.855 14.0791 332.738 14.0615C332.621 14.0498 332.527 14.0322 332.457 14.0088V13.2881C332.527 13.3057 332.606 13.3203 332.694 13.332C332.782 13.3379 332.891 13.3408 333.02 13.3408C333.318 13.3408 333.585 13.2295 333.819 13.0068C334.054 12.7783 334.262 12.4326 334.443 11.9697C334.631 11.5068 334.792 10.9238 334.927 10.2207C335.062 9.51172 335.179 8.67676 335.278 7.71582C335.384 6.75488 335.478 5.66504 335.56 4.44629H340.578V14ZM347.1 4.2793C348.148 4.2793 348.934 4.54297 349.455 5.07031C349.977 5.59766 350.237 6.43848 350.237 7.59277V14H349.552L349.394 12.3301H349.341C349.136 12.6875 348.887 13.0068 348.594 13.2881C348.301 13.5635 347.94 13.7803 347.513 13.9385C347.091 14.0967 346.575 14.1758 345.966 14.1758C345.351 14.1758 344.823 14.0732 344.384 13.8682C343.95 13.6631 343.613 13.3643 343.373 12.9717C343.139 12.5791 343.021 12.1016 343.021 11.5391C343.021 10.5898 343.414 9.86914 344.199 9.37695C344.984 8.87891 346.112 8.59766 347.583 8.5332L349.358 8.44531V7.75098C349.358 6.77246 349.165 6.0752 348.778 5.65918C348.392 5.24316 347.82 5.03516 347.064 5.03516C346.572 5.03516 346.098 5.09961 345.641 5.22852C345.189 5.35156 344.729 5.53027 344.261 5.76465L343.979 5.02637C344.437 4.80957 344.926 4.63086 345.447 4.49023C345.975 4.34961 346.525 4.2793 347.1 4.2793ZM349.35 9.13965L347.68 9.20996C346.467 9.26855 345.544 9.48535 344.911 9.86035C344.278 10.2354 343.962 10.7979 343.962 11.5479C343.962 12.1514 344.149 12.6143 344.524 12.9365C344.905 13.2588 345.433 13.4199 346.106 13.4199C347.155 13.4199 347.955 13.1211 348.506 12.5234C349.062 11.9258 349.344 11.1113 349.35 10.0801V9.13965ZM359.396 5.22852H356.161V14H355.291V5.22852H352.074V4.44629H359.396V5.22852ZM364.959 4.26172C365.773 4.26172 366.45 4.45215 366.989 4.83301C367.534 5.21387 367.938 5.73535 368.202 6.39746C368.472 7.05957 368.606 7.81836 368.606 8.67383V9.31543H361.707C361.707 10.6279 362.009 11.6357 362.612 12.3389C363.222 13.042 364.092 13.3936 365.223 13.3936C365.814 13.3936 366.327 13.3467 366.761 13.2529C367.2 13.1533 367.687 12.9863 368.22 12.752V13.5693C367.751 13.7803 367.282 13.9326 366.813 14.0264C366.345 14.126 365.806 14.1758 365.196 14.1758C364.229 14.1758 363.418 13.9766 362.762 13.5781C362.111 13.1738 361.619 12.6055 361.285 11.873C360.957 11.1406 360.793 10.2852 360.793 9.30664C360.793 8.35156 360.951 7.49316 361.268 6.73145C361.59 5.96973 362.059 5.36914 362.674 4.92969C363.295 4.48438 364.057 4.26172 364.959 4.26172ZM364.95 5.02637C364.036 5.02637 363.295 5.33105 362.727 5.94043C362.164 6.54395 361.833 7.41699 361.733 8.55957H367.684C367.684 7.8623 367.584 7.24707 367.385 6.71387C367.186 6.18066 366.884 5.76758 366.479 5.47461C366.081 5.17578 365.571 5.02637 364.95 5.02637ZM362.568 1.77441C362.568 1.56934 362.615 1.40527 362.709 1.28223C362.809 1.15918 362.952 1.09766 363.14 1.09766C363.351 1.09766 363.503 1.15918 363.597 1.28223C363.69 1.40527 363.737 1.56934 363.737 1.77441C363.737 1.98535 363.69 2.15234 363.597 2.27539C363.503 2.39844 363.351 2.45996 363.14 2.45996C362.952 2.45996 362.809 2.39844 362.709 2.27539C362.615 2.15234 362.568 1.98535 362.568 1.77441ZM365.917 1.77441C365.917 1.56934 365.964 1.40527 366.058 1.28223C366.157 1.15918 366.301 1.09766 366.488 1.09766C366.693 1.09766 366.843 1.15918 366.937 1.28223C367.036 1.40527 367.086 1.56934 367.086 1.77441C367.086 1.98535 367.036 2.15234 366.937 2.27539C366.843 2.39844 366.693 2.45996 366.488 2.45996C366.301 2.45996 366.157 2.39844 366.058 2.27539C365.964 2.15234 365.917 1.98535 365.917 1.77441ZM381.166 4.44629L377.009 9.11328L381.491 14H380.419L376.042 9.15723V14H375.198V9.15723L370.821 14H369.749L374.231 9.11328L370.057 4.44629H371.094L375.198 9.08691V4.44629H376.042V9.08691L380.146 4.44629H381.166ZM384.11 4.44629V8.62988H390.131V4.44629H391.019V14H390.131V9.41211H384.11V14H383.214V4.44629H384.11ZM394.218 14V4.44629H395.114V8.47168H398.384C399.134 8.47168 399.746 8.57715 400.221 8.78809C400.701 8.99902 401.056 9.30371 401.284 9.70215C401.519 10.1006 401.636 10.5811 401.636 11.1436C401.636 11.7412 401.513 12.2539 401.267 12.6816C401.021 13.1035 400.643 13.4287 400.133 13.6572C399.623 13.8857 398.976 14 398.19 14H394.218ZM395.114 13.2441H398.094C399.002 13.2441 399.67 13.0713 400.098 12.7256C400.525 12.3799 400.739 11.8555 400.739 11.1523C400.739 10.5137 400.531 10.0361 400.115 9.71973C399.705 9.40332 399.084 9.24512 398.252 9.24512H395.114V13.2441ZM403.156 14V4.44629H404.044V14H403.156ZM410.838 4.26172C411.652 4.26172 412.329 4.45215 412.868 4.83301C413.413 5.21387 413.817 5.73535 414.081 6.39746C414.351 7.05957 414.485 7.81836 414.485 8.67383V9.31543H407.586C407.586 10.6279 407.888 11.6357 408.491 12.3389C409.101 13.042 409.971 13.3936 411.102 13.3936C411.693 13.3936 412.206 13.3467 412.64 13.2529C413.079 13.1533 413.565 12.9863 414.099 12.752V13.5693C413.63 13.7803 413.161 13.9326 412.692 14.0264C412.224 14.126 411.685 14.1758 411.075 14.1758C410.108 14.1758 409.297 13.9766 408.641 13.5781C407.99 13.1738 407.498 12.6055 407.164 11.873C406.836 11.1406 406.672 10.2852 406.672 9.30664C406.672 8.35156 406.83 7.49316 407.146 6.73145C407.469 5.96973 407.938 5.36914 408.553 4.92969C409.174 4.48438 409.936 4.26172 410.838 4.26172ZM410.829 5.02637C409.915 5.02637 409.174 5.33105 408.605 5.94043C408.043 6.54395 407.712 7.41699 407.612 8.55957H413.562C413.562 7.8623 413.463 7.24707 413.264 6.71387C413.064 6.18066 412.763 5.76758 412.358 5.47461C411.96 5.17578 411.45 5.02637 410.829 5.02637ZM4.81836 27.2617C6.04883 27.2617 7.00098 27.6748 7.6748 28.501C8.35449 29.3271 8.69434 30.5459 8.69434 32.1572C8.69434 33.2354 8.5332 34.1494 8.21094 34.8994C7.88867 35.6436 7.42871 36.209 6.83105 36.5957C6.23926 36.9824 5.52734 37.1758 4.69531 37.1758C4.12109 37.1758 3.62012 37.0908 3.19238 36.9209C2.77051 36.7451 2.41895 36.5107 2.1377 36.2178C1.85645 35.9189 1.63965 35.5908 1.4873 35.2334H1.42578C1.44336 35.5674 1.45801 35.916 1.46973 36.2793C1.48145 36.6426 1.4873 36.9854 1.4873 37.3076V41.2275H0.59082V27.4463H1.3291L1.43457 29.3535H1.4873C1.64551 28.9902 1.86816 28.6475 2.15527 28.3252C2.44238 28.0029 2.80566 27.7451 3.24512 27.5518C3.68457 27.3584 4.20898 27.2617 4.81836 27.2617ZM4.7041 28.0439C3.9834 28.0439 3.38281 28.2021 2.90234 28.5186C2.42773 28.8291 2.07324 29.2861 1.83887 29.8896C1.61035 30.4873 1.49316 31.2197 1.4873 32.0869V32.2363C1.4873 33.168 1.60156 33.9443 1.83008 34.5654C2.06445 35.1807 2.41309 35.6406 2.87598 35.9453C3.34473 36.25 3.9248 36.4023 4.61621 36.4023C5.2959 36.4023 5.87012 36.2354 6.33887 35.9014C6.80762 35.5674 7.16504 35.084 7.41113 34.4512C7.65723 33.8184 7.78027 33.0508 7.78027 32.1484C7.78027 30.8066 7.52246 29.7871 7.00684 29.0898C6.49707 28.3926 5.72949 28.0439 4.7041 28.0439ZM14.9258 27.2617C15.7402 27.2617 16.417 27.4521 16.9561 27.833C17.501 28.2139 17.9053 28.7354 18.1689 29.3975C18.4385 30.0596 18.5732 30.8184 18.5732 31.6738V32.3154H11.6738C11.6738 33.6279 11.9756 34.6357 12.5791 35.3389C13.1885 36.042 14.0586 36.3936 15.1895 36.3936C15.7812 36.3936 16.2939 36.3467 16.7275 36.2529C17.167 36.1533 17.6533 35.9863 18.1865 35.752V36.5693C17.7178 36.7803 17.249 36.9326 16.7803 37.0264C16.3115 37.126 15.7725 37.1758 15.1631 37.1758C14.1963 37.1758 13.3848 36.9766 12.7285 36.5781C12.0781 36.1738 11.5859 35.6055 11.252 34.873C10.9238 34.1406 10.7598 33.2852 10.7598 32.3066C10.7598 31.3516 10.918 30.4932 11.2344 29.7314C11.5566 28.9697 12.0254 28.3691 12.6406 27.9297C13.2617 27.4844 14.0234 27.2617 14.9258 27.2617ZM14.917 28.0264C14.0029 28.0264 13.2617 28.3311 12.6934 28.9404C12.1309 29.5439 11.7998 30.417 11.7002 31.5596H17.6504C17.6504 30.8623 17.5508 30.2471 17.3516 29.7139C17.1523 29.1807 16.8506 28.7676 16.4463 28.4746C16.0479 28.1758 15.5381 28.0264 14.917 28.0264ZM33.3477 27.4463V37H21.1924V27.4463H22.0801V36.2178H26.8262V27.4463H27.7139V36.2178H32.46V27.4463H33.3477ZM40.1504 27.2617C40.9648 27.2617 41.6416 27.4521 42.1807 27.833C42.7256 28.2139 43.1299 28.7354 43.3936 29.3975C43.6631 30.0596 43.7979 30.8184 43.7979 31.6738V32.3154H36.8984C36.8984 33.6279 37.2002 34.6357 37.8037 35.3389C38.4131 36.042 39.2832 36.3936 40.4141 36.3936C41.0059 36.3936 41.5186 36.3467 41.9521 36.2529C42.3916 36.1533 42.8779 35.9863 43.4111 35.752V36.5693C42.9424 36.7803 42.4736 36.9326 42.0049 37.0264C41.5361 37.126 40.9971 37.1758 40.3877 37.1758C39.4209 37.1758 38.6094 36.9766 37.9531 36.5781C37.3027 36.1738 36.8105 35.6055 36.4766 34.873C36.1484 34.1406 35.9844 33.2852 35.9844 32.3066C35.9844 31.3516 36.1426 30.4932 36.459 29.7314C36.7812 28.9697 37.25 28.3691 37.8652 27.9297C38.4863 27.4844 39.248 27.2617 40.1504 27.2617ZM40.1416 28.0264C39.2275 28.0264 38.4863 28.3311 37.918 28.9404C37.3555 29.5439 37.0244 30.417 36.9248 31.5596H42.875C42.875 30.8623 42.7754 30.2471 42.5762 29.7139C42.377 29.1807 42.0752 28.7676 41.6709 28.4746C41.2725 28.1758 40.7627 28.0264 40.1416 28.0264ZM47.3311 27.4463V31.6299H53.3516V27.4463H54.2393V37H53.3516V32.4121H47.3311V37H46.4346V27.4463H47.3311ZM58.2998 27.4463V34.3105C58.2998 34.4453 58.2969 34.583 58.291 34.7236C58.291 34.8643 58.2881 35.0078 58.2822 35.1543C58.2822 35.3008 58.2793 35.4443 58.2734 35.585C58.2676 35.7256 58.2588 35.8633 58.2471 35.998L63.9512 27.4463H65.041V37H64.1973V30.0742C64.1973 29.8984 64.1973 29.7168 64.1973 29.5293C64.2031 29.3359 64.209 29.1455 64.2148 28.958C64.2207 28.7646 64.2266 28.583 64.2324 28.4131L58.502 37H57.4385V27.4463H58.2998ZM68.0732 37H67.0098L69.8926 32.8867C69.3711 32.8223 68.9258 32.6816 68.5566 32.4648C68.1875 32.248 67.9062 31.9551 67.7129 31.5859C67.5254 31.2168 67.4316 30.7686 67.4316 30.2412C67.4316 29.3037 67.7275 28.6035 68.3193 28.1406C68.917 27.6777 69.6875 27.4463 70.6309 27.4463H74.5771V37H73.6895V32.9746H70.8242L68.0732 37ZM68.3018 30.2236C68.3018 30.8857 68.5068 31.3809 68.917 31.709C69.3271 32.0371 69.9453 32.2012 70.7715 32.2012H73.6895V28.2197H70.7275C69.9307 28.2197 69.3271 28.3984 68.917 28.7559C68.5068 29.1074 68.3018 29.5967 68.3018 30.2236ZM85.8271 24.1504C87.3564 24.1504 88.502 24.4434 89.2637 25.0293C90.0254 25.6152 90.4062 26.5264 90.4062 27.7627C90.4062 28.3955 90.3037 28.958 90.0986 29.4502C89.8994 29.9365 89.5977 30.3467 89.1934 30.6807C88.7891 31.0146 88.2822 31.2666 87.6729 31.4365C87.0693 31.6064 86.3633 31.6914 85.5547 31.6914H83.5771V37H82.6719V24.1504H85.8271ZM85.7305 24.9502H83.5771V30.8916H85.4668C86.2988 30.8916 87.0137 30.7979 87.6113 30.6104C88.209 30.417 88.6689 30.0947 88.9912 29.6436C89.3135 29.1924 89.4746 28.5771 89.4746 27.7979C89.4746 26.8076 89.1699 26.0869 88.5605 25.6357C87.9512 25.1787 87.0078 24.9502 85.7305 24.9502ZM101.243 37L99.4941 32.4561H94.0977L92.3135 37H91.3906L96.4443 24.1064H97.2705L102.192 37H101.243ZM99.2041 31.6387L97.4287 26.8223C97.3818 26.6992 97.3232 26.541 97.2529 26.3477C97.1885 26.1543 97.1182 25.9492 97.042 25.7324C96.9717 25.5156 96.9014 25.3105 96.8311 25.1172C96.7725 25.3223 96.708 25.5273 96.6377 25.7324C96.5674 25.9375 96.5 26.1367 96.4355 26.3301C96.3711 26.5176 96.3096 26.6875 96.251 26.8398L94.4053 31.6387H99.2041ZM106.956 31.1641L110.709 24.1504H111.702L107.422 32.0342V37H106.517V32.1045L102.201 24.1504H103.203L106.956 31.1641ZM120.746 37H112.704V36.2441L116.483 32.3066C117.087 31.6797 117.594 31.1143 118.004 30.6104C118.42 30.1006 118.733 29.5908 118.944 29.0811C119.161 28.5713 119.27 28 119.27 27.3672C119.27 26.541 119.026 25.8994 118.54 25.4424C118.06 24.9854 117.406 24.7568 116.58 24.7568C116.023 24.7568 115.487 24.8564 114.972 25.0557C114.462 25.2549 113.964 25.5479 113.478 25.9346L112.985 25.3105C113.343 25.0176 113.718 24.7715 114.11 24.5723C114.509 24.373 114.916 24.2236 115.332 24.124C115.748 24.0186 116.164 23.9658 116.58 23.9658C117.312 23.9658 117.945 24.1064 118.479 24.3877C119.018 24.6631 119.437 25.0527 119.735 25.5566C120.034 26.0605 120.184 26.6523 120.184 27.332C120.184 28.0352 120.061 28.6738 119.814 29.248C119.574 29.8164 119.231 30.373 118.786 30.918C118.341 31.4629 117.813 32.0488 117.204 32.6758L113.855 36.1387V36.1738H120.746V37ZM129.368 37L124.648 25.1348H124.604C124.616 25.3516 124.625 25.5801 124.631 25.8203C124.643 26.0547 124.651 26.3008 124.657 26.5586C124.663 26.8164 124.666 27.0859 124.666 27.3672V37H123.805V24.1504H125.176L129.729 35.5938H129.781L134.369 24.1504H135.705V37H134.817V27.2617C134.817 27.0332 134.82 26.7988 134.826 26.5586C134.832 26.3184 134.838 26.0811 134.844 25.8467C134.855 25.6064 134.867 25.375 134.879 25.1523H134.826L130.089 37H129.368ZM146.366 37H139.344V24.1504H146.366V24.9678H140.249V29.8369H146.023V30.6543H140.249V36.1826H146.366V37ZM148.924 36.376C148.924 36.1182 148.982 35.9219 149.1 35.7871C149.217 35.6465 149.39 35.5762 149.618 35.5762C149.87 35.5762 150.055 35.6465 150.172 35.7871C150.289 35.9219 150.348 36.1182 150.348 36.376C150.348 36.6338 150.289 36.833 150.172 36.9736C150.055 37.1143 149.87 37.1846 149.618 37.1846C149.39 37.1846 149.217 37.1143 149.1 36.9736C148.982 36.833 148.924 36.6338 148.924 36.376Z" fill="#4A3C73"/>
</svg>
